<?xml version="1.0" encoding="UTF-8" standalone="no"?><!DOCTYPE svg PUBLIC "-//W3C//DTD SVG 1.1//EN" "http://www.w3.org/Graphics/SVG/1.1/DTD/svg11.dtd"><svg width="100%" height="100%" viewBox="0 0 800 550" version="1.1" xmlns="http://www.w3.org/2000/svg" xmlnsXlink="http://www.w3.org/1999/xlink" xmlSpace="preserve" xmlnsSerif="http://www.serif.com/" style="fill-rule:evenodd;clip-rule:evenodd;stroke-linejoin:round;stroke-miterlimit:2;"><rect id="Artboard1" x="0" y="0" width="800" height="550" style="fill:none;"/><clipPath id="_clip1"><rect id="Artboard11" serifId="Artboard1" x="0" y="0" width="800" height="550"/></clipPath><g clip-path="url(#_clip1)"><path d="M634.347,466.714c2.304,0 4.253,-0.795 5.848,-2.385c1.595,-1.591 2.393,-3.534 2.393,-5.832c-0,-2.297 -0.798,-4.241 -2.393,-5.831c-1.595,-1.59 -3.544,-2.385 -5.848,-2.385c-2.304,-0 -4.253,0.795 -5.848,2.385c-1.595,1.59 -2.393,3.534 -2.393,5.831c0,2.298 0.798,4.241 2.393,5.832c1.595,1.59 3.544,2.385 5.848,2.385Zm-10.633,26.506c2.304,0 4.253,-0.795 5.848,-2.385c1.595,-1.591 2.393,-3.535 2.393,-5.832c-0,-2.297 -0.798,-4.241 -2.393,-5.831c-1.595,-1.59 -3.544,-2.386 -5.848,-2.386c-2.304,0 -4.254,0.796 -5.849,2.386c-1.595,1.59 -2.392,3.534 -2.392,5.831c-0,2.297 0.797,4.241 2.392,5.832c1.595,1.59 3.545,2.385 5.849,2.385Zm34.558,5.036c1.506,0 2.769,-0.508 3.788,-1.524c1.019,-1.016 1.529,-2.275 1.529,-3.777c-0,-1.502 -0.51,-2.761 -1.529,-3.777c-1.019,-1.016 -2.282,-1.524 -3.788,-1.524c-1.506,-0 -2.769,0.508 -3.788,1.524c-1.019,1.016 -1.529,2.275 -1.529,3.777c0,1.502 0.51,2.761 1.529,3.777c1.019,1.016 2.282,1.524 3.788,1.524Zm-15.95,31.807c-7.266,0 -14.133,-1.391 -20.602,-4.174c-6.469,-2.784 -12.118,-6.583 -16.947,-11.398c-4.829,-4.815 -8.64,-10.448 -11.431,-16.897c-2.791,-6.45 -4.187,-13.298 -4.187,-20.542c0,-8.129 1.728,-15.727 5.184,-22.796c3.456,-7.068 8.086,-13.054 13.89,-17.957c5.804,-4.904 12.494,-8.438 20.07,-10.603c7.577,-2.164 15.441,-2.451 23.593,-0.861c-0.532,3.976 -0.177,7.731 1.063,11.265c1.241,3.534 3.124,6.538 5.649,9.012c2.526,2.474 5.561,4.285 9.105,5.434c3.545,1.148 7.266,1.413 11.165,0.795c-1.772,5.389 -0.797,10.227 2.924,14.512c3.722,4.285 8.241,6.648 13.558,7.09c0.709,7.687 -0.2,14.976 -2.725,21.867c-2.525,6.892 -6.225,12.944 -11.099,18.157c-4.873,5.213 -10.677,9.365 -17.412,12.458c-6.734,3.092 -14,4.638 -21.798,4.638Zm0,-7.952c12.583,0 23.039,-4.13 31.368,-12.391c8.33,-8.261 12.982,-18.444 13.957,-30.548c-4.785,-1.767 -8.662,-4.396 -11.631,-7.886c-2.968,-3.489 -4.807,-7.487 -5.516,-11.993c-7.177,-0.972 -13.225,-4.065 -18.143,-9.277c-4.918,-5.213 -7.731,-11.265 -8.44,-18.157c-6.557,-0.265 -12.694,0.795 -18.409,3.181c-5.715,2.385 -10.678,5.654 -14.887,9.807c-4.209,4.152 -7.509,9.034 -9.902,14.644c-2.392,5.611 -3.589,11.464 -3.589,17.561c0,12.546 4.387,23.192 13.159,31.939c8.773,8.747 19.45,13.12 32.033,13.12Z" style="fill-rule:nonzero;"/><path d="M43.254,321.727c-5.202,-3.004 -8.753,-5.953 -10.652,-8.848c-1.9,-2.895 -3.349,-5.63 -4.347,-8.205c-0.783,-2.051 -1.594,-3.918 -2.434,-5.601c-0.839,-1.684 -2.307,-3.131 -4.404,-4.341c-3.493,-2.017 -7.107,-4.723 -10.841,-8.118c-3.734,-3.394 -6.869,-7.243 -9.406,-11.545c-2.536,-4.302 -4.1,-8.901 -4.689,-13.797c-0.589,-4.897 0.514,-9.855 3.309,-14.876c5.625,-10.101 13.569,-16.464 23.833,-19.091c10.264,-2.627 21.296,-0.533 33.097,6.28c5.513,3.183 9.816,6.487 12.911,9.912c3.095,3.425 5.484,6.863 7.167,10.313c1.684,3.449 2.827,6.847 3.432,10.193c0.604,3.347 1.154,6.562 1.651,9.646c0.239,1.737 0.54,3.369 0.9,4.896c0.361,1.527 0.842,3.024 1.445,4.491c2.581,6.286 4.258,11.451 5.03,15.493c0.771,4.043 -0.418,8.791 -3.567,14.247c-4.153,7.193 -10.498,11.503 -19.034,12.93c-8.535,1.426 -16.336,0.1 -23.401,-3.979Zm3.115,-5.396c5.047,2.914 10.884,3.786 17.511,2.617c6.627,-1.169 11.568,-4.572 14.821,-10.207c2.492,-4.316 3.522,-7.938 3.09,-10.865c-0.432,-2.927 -1.978,-7.556 -4.637,-13.887c-0.861,-2.096 -1.514,-4.191 -1.96,-6.287c-0.446,-2.096 -0.841,-4.282 -1.183,-6.558c-0.95,-6.064 -2.473,-11.719 -4.569,-16.965c-2.095,-5.247 -7.374,-10.313 -15.837,-15.199c-4.192,-2.42 -8.232,-4.073 -12.12,-4.959c-3.889,-0.886 -7.741,-1.072 -11.557,-0.558c-4.715,0.635 -9.025,2.363 -12.931,5.183c-3.906,2.821 -7.208,6.569 -9.908,11.245c-2.527,4.376 -3.428,8.672 -2.704,12.886c0.724,4.215 2.212,8.092 4.465,11.631c2.253,3.538 4.906,6.609 7.959,9.21c3.053,2.602 5.627,4.508 7.723,5.718c3.494,2.018 5.919,4.317 7.276,6.898c1.356,2.582 2.404,4.846 3.144,6.792c0.963,2.634 2.098,4.927 3.403,6.88c1.305,1.953 3.977,4.094 8.014,6.425Zm-7.212,-30.54c3.882,2.241 7.787,3.097 11.716,2.568c3.929,-0.53 6.759,-2.293 8.489,-5.29c1.731,-2.998 1.843,-6.33 0.337,-9.997c-1.506,-3.667 -4.2,-6.621 -8.082,-8.863c-3.882,-2.241 -7.787,-3.097 -11.716,-2.568c-3.929,0.53 -6.758,2.293 -8.489,5.29c-1.731,2.998 -1.843,6.33 -0.337,9.997c1.506,3.667 4.2,6.621 8.082,8.863Z" style="fill-rule:nonzero;"/><path d="M760.359,316.173l-45.95,-29.723c-4.958,4.085 -10.531,5.774 -16.719,5.067c-6.187,-0.708 -10.936,-3.928 -14.246,-9.66c-1.985,-3.44 -2.833,-7.434 -2.544,-11.983c0.29,-4.549 2.211,-8.614 5.764,-12.194c-3.096,-8.301 -3.085,-16.409 0.034,-24.324c3.118,-7.915 8.296,-13.961 15.533,-18.14c7.237,-4.178 15.042,-5.627 23.416,-4.347c8.374,1.279 15.421,5.312 21.142,12.098c4.876,-1.287 9.357,-0.918 13.442,1.105c4.084,2.024 7.119,4.756 9.105,8.195c3.31,5.732 3.644,11.501 1.004,17.305c-2.64,5.804 -6.73,9.694 -12.27,11.67l2.289,54.931Zm-53.54,-34.054c1.431,-0.826 2.673,-1.798 3.725,-2.915c1.051,-1.117 1.737,-2.226 2.055,-3.327l1.315,-4.886l4.067,0.709c2.739,0.151 5.38,-0.278 7.925,-1.289c2.545,-1.01 4.811,-2.09 6.799,-3.238c1.989,-1.148 3.917,-2.49 5.786,-4.028c1.87,-1.538 3.423,-3.53 4.661,-5.978l1.54,-3.945l4.769,1.373c1.113,0.275 2.436,0.224 3.969,-0.151c1.533,-0.376 2.975,-0.954 4.327,-1.734c2.704,-1.561 4.503,-4.001 5.397,-7.32c0.894,-3.319 0.569,-6.315 -0.976,-8.99c-1.367,-2.37 -3.314,-3.997 -5.84,-4.883c-2.526,-0.885 -5.314,-0.754 -8.362,0.395l-4.506,1.837l-2.82,-4.333c-4.361,-5.533 -9.642,-9.032 -15.842,-10.496c-6.201,-1.465 -12.403,-0.406 -18.606,3.175c-6.203,3.582 -10.241,8.435 -12.112,14.56c-1.872,6.125 -1.463,12.436 1.228,18.933l2.224,4.678l-3.646,3.328c-2.033,1.989 -3.432,4.249 -4.198,6.78c-0.765,2.531 -0.464,4.981 0.904,7.35c1.545,2.675 3.977,4.455 7.298,5.34c3.321,0.885 6.294,0.57 8.919,-0.945Zm44.538,18.462l-1.41,-37.706l-1.113,-0.275c-1.565,2.432 -3.485,4.662 -5.761,6.689c-2.276,2.028 -4.408,3.615 -6.396,4.763c-2.545,1.469 -5.284,2.694 -8.218,3.674c-2.933,0.981 -5.725,1.471 -8.375,1.473l-0.385,0.986l31.658,20.396Z" style="fill-rule:nonzero;"/><path d="M123.251,497.868l1.791,-6.683l21.67,5.807l7.282,-27.176l-23.429,-48.775l1.79,-6.682l74.298,19.908l-1.79,6.682l-44.678,30.526l-7.282,27.176l21.671,5.806l-1.791,6.683l-49.532,-13.272Zm21.391,-62.908l41.07,11.005l10.982,-6.727l-58.2,-15.594l6.148,11.316Zm14.089,29.56l19.515,-13.393l-29.719,-7.964l10.204,21.357Z" style="fill-rule:nonzero;"/><path d="M461.598,116.601l-90.627,-37.979c2.839,-9.725 7.044,-18.707 12.616,-26.946c5.571,-8.239 12.486,-15.121 20.743,-20.647c8.257,-5.526 17.256,-9.294 26.997,-11.302c9.741,-2.009 19.648,-2.472 29.72,-1.387l0.551,98.261Zm-8.063,-12.048l-0.328,-78.684c-7.765,0.089 -15.467,1.004 -23.104,2.747c-7.638,1.742 -14.722,4.798 -21.252,9.168c-6.531,4.371 -12.057,9.754 -16.58,16.15c-4.523,6.396 -8.306,13.167 -11.35,20.312l72.614,30.307Zm-40.869,-34.272c1.727,-1.155 2.789,-2.735 3.186,-4.74c0.397,-2.005 0.018,-3.871 -1.137,-5.597c-1.156,-1.726 -2.736,-2.788 -4.741,-3.186c-2.004,-0.397 -3.87,-0.018 -5.597,1.138c-1.726,1.155 -2.788,2.735 -3.185,4.74c-0.397,2.005 -0.018,3.87 1.137,5.597c1.156,1.726 2.736,2.788 4.74,3.185c2.005,0.398 3.871,0.019 5.597,-1.137Zm28.587,15.919c1.726,-1.155 2.788,-2.735 3.185,-4.74c0.397,-2.005 0.018,-3.87 -1.137,-5.597c-1.155,-1.726 -2.736,-2.788 -4.74,-3.185c-2.005,-0.398 -3.871,-0.019 -5.597,1.137c-1.727,1.155 -2.788,2.735 -3.186,4.74c-0.397,2.005 -0.018,3.87 1.138,5.597c1.155,1.726 2.735,2.788 4.74,3.185c2.005,0.398 3.87,0.019 5.597,-1.137Z" style="fill-rule:nonzero;"/><path d="M695.241,23.817l2.553,-4.421c4.637,-8.033 11.95,-12.434 21.936,-13.202c9.987,-0.768 21.456,2.586 34.408,10.064c12.951,7.477 21.591,15.733 25.919,24.766c4.328,9.032 4.173,17.565 -0.465,25.598l-2.553,4.422l-81.798,-47.227Zm10.169,-2.972l69.119,39.906c2.731,-5.203 1.9,-11.358 -2.495,-18.464c-4.395,-7.107 -11.637,-13.572 -21.726,-19.397c-10.088,-5.824 -19.342,-8.883 -27.762,-9.175c-8.421,-0.292 -14.133,2.084 -17.136,7.13Zm-21.402,22.427l3.83,-6.632c2.249,1.299 4.677,1.62 7.283,0.962c2.606,-0.657 5.75,0.077 9.431,2.203c3.68,2.125 5.649,4.342 5.906,6.652c0.257,2.31 1.783,4.272 4.578,5.886c2.794,1.613 5.324,1.993 7.59,1.139c2.265,-0.854 5.238,-0.218 8.919,1.907c3.681,2.125 5.718,4.382 6.111,6.771c0.393,2.389 1.987,4.39 4.782,6.004c2.795,1.613 5.257,1.954 7.386,1.021c2.129,-0.933 5.034,-0.336 8.714,1.789c3.681,2.125 5.889,4.481 6.623,7.066c0.734,2.585 2.226,4.528 4.475,5.826l-3.829,6.633c-3.681,-2.125 -5.752,-4.402 -6.214,-6.83c-0.461,-2.428 -2.089,-4.449 -4.884,-6.063c-2.795,-1.613 -5.256,-1.954 -7.385,-1.021c-2.129,0.932 -5.034,0.336 -8.715,-1.789c-3.681,-2.125 -5.718,-4.382 -6.111,-6.771c-0.393,-2.389 -1.987,-4.39 -4.782,-6.003c-2.795,-1.614 -5.325,-1.994 -7.59,-1.14c-2.266,0.854 -5.239,0.218 -8.92,-1.907c-3.68,-2.125 -5.649,-4.343 -5.906,-6.653c-0.257,-2.31 -1.783,-4.271 -4.578,-5.885c-2.794,-1.613 -5.359,-2.013 -7.692,-1.199c-2.333,0.815 -5.341,0.16 -9.022,-1.966Zm-10.586,32.504c-1.636,-0.944 -2.684,-2.434 -3.145,-4.469c-0.461,-2.035 -0.181,-3.937 0.84,-5.705l8.169,-14.15l81.798,47.227l-8.169,14.149c-1.021,1.769 -2.528,2.962 -4.521,3.58c-1.993,0.618 -3.807,0.455 -5.443,-0.49l-69.529,-40.142Zm3.83,-6.632l69.528,40.142l4.34,-7.517l-69.529,-40.142l-4.339,7.517Zm4.339,-7.517l69.529,40.142l-69.529,-40.142Zm23.819,-40.782l69.119,39.906l-69.119,-39.906Z" style="fill-rule:nonzero;"/><path d="M60.89,96.252l21.386,9.475l2.564,-5.786l4.406,0.099c6.043,0.122 11.446,-0.821 16.209,-2.831c4.763,-2.009 8.733,-4.741 11.911,-8.194l-67.672,-29.982c-0.423,4.674 0.248,9.483 2.013,14.426c1.765,4.943 4.67,9.546 8.713,13.81l3.033,3.197l-2.563,5.786Zm-8.945,3.453l3.57,-8.059c-5.951,-6.097 -9.84,-12.847 -11.67,-20.249c-1.829,-7.402 -1.459,-14.654 1.111,-21.755l7.439,3.296l15.517,-35.024l78.921,24.954l-2.288,5.166l-51.811,-16.404l-3.983,8.988l49.386,21.88l-2.289,5.166l-49.385,-21.88l-8.239,18.597l49.281,21.834c-3.464,6.705 -8.587,11.851 -15.368,15.438c-6.78,3.588 -14.393,5.242 -22.838,4.961l-3.57,8.059l-33.784,-14.968Zm26.475,-63.664l5.166,2.289l3.753,-8.472l-5.44,-1.669l-3.479,7.852Zm-10.332,-4.577l5.166,2.288l3.25,-7.335l-5.441,-1.669l-2.975,6.716Zm-0.196,28.34l5.166,2.288l8.239,-18.597l-5.166,-2.288l-8.239,18.597Zm-10.332,-4.578l5.166,2.289l8.239,-18.597l-5.165,-2.289l-8.24,18.597Z" style="fill-rule:nonzero;"/></g></svg>